<?xml version="1.0" encoding="utf-8"?>
<!-- Generator: Adobe Illustrator 16.0.0, SVG Export Plug-In . SVG Version: 6.00 Build 0)  -->
<!DOCTYPE svg PUBLIC "-//W3C//DTD SVG 1.1//EN" "http://www.w3.org/Graphics/SVG/1.1/DTD/svg11.dtd">
<svg version="1.1" id="Layer_1" xmlns="http://www.w3.org/2000/svg" xmlns:xlink="http://www.w3.org/1999/xlink" x="0px" y="0px"
	 width="39.99px" height="41.549px" viewBox="-2.645 -2.75 39.99 41.549" enable-background="new -2.645 -2.75 39.99 41.549"
	 xml:space="preserve">
<g>
	<path fill="#FFFFFF" d="M31.854,10.6L31.854,10.6V-1.652c0-0.462-0.231-0.809-0.577-0.924c-0.347-0.231-0.81-0.231-1.156,0
		L19.603,3.433l0,0c-0.578,0.348-0.693,1.041-0.462,1.503l3.583,6.125c0.23,0.347,0.578,0.578,0.925,0.578h7.167
		C31.277,11.755,31.854,11.177,31.854,10.6z"/>
	<path fill="#FFFFFF" d="M21.569,20.423l10.518-6.01l0,0c0.577-0.346,1.271-0.116,1.502,0.462l3.584,6.126
		c0.23,0.348,0.23,0.81,0,1.155l-3.468,6.242c-0.347,0.578-1.041,0.692-1.504,0.462l0,0l-10.632-6.126
		c-0.348-0.23-0.578-0.578-0.578-0.924C20.991,21.001,21.221,20.653,21.569,20.423z"/>
	<path fill="#FFFFFF" d="M30.816,30.594L30.816,30.594l-10.519-6.126c-0.347-0.23-0.81-0.23-1.156,0
		c-0.346,0.231-0.577,0.578-0.577,0.926v12.251l0,0c0,0.577,0.461,1.155,1.155,1.155h7.05c0.463,0,0.809-0.231,1.04-0.578
		l3.584-6.126C31.739,31.75,31.393,30.94,30.816,30.594z"/>
	<path fill="#FFFFFF" d="M3.77,30.594L3.77,30.594l10.518-6.126c0.346-0.23,0.809-0.23,1.156,0c0.346,0.231,0.578,0.578,0.578,0.926
		v12.251l0,0c0,0.577-0.463,1.155-1.155,1.155H7.815c-0.462,0-0.81-0.231-0.925-0.578l-3.582-6.126
		C3.076,31.75,3.192,30.94,3.77,30.594z"/>
	<path fill="#FFFFFF" d="M3.77,12.102L3.77,12.102l10.518,6.01c0.346,0.231,0.809,0.231,1.156,0
		c0.346-0.231,0.578-0.578,0.578-0.925V4.936l0,0c0-0.578-0.463-1.155-1.155-1.155H7.815c-0.462,0-0.81,0.23-0.925,0.578
		l-3.582,6.125C3.076,11.062,3.192,11.755,3.77,12.102z"/>
	<path fill="#FFFFFF" d="M13.131,20.423l-10.517-6.01l0,0c-0.578-0.346-1.271-0.116-1.503,0.462l-3.583,6.126
		c-0.231,0.348-0.231,0.81,0,1.155l3.467,6.242c0.347,0.578,1.041,0.692,1.502,0.462l0,0l10.518-6.01
		c0.346-0.231,0.578-0.578,0.578-0.925C13.594,21.001,13.478,20.653,13.131,20.423z"/>
</g>
</svg>
