<svg width="182" height="268" xmlns="http://www.w3.org/2000/svg">
 <g id="Layer_1">
  <title>Layer 1</title>
  <rect id="svg_2" height="268" width="182" y="0" x="0" stroke-opacity="null" stroke-dasharray="null" stroke-width="null" stroke="#000" fill="#212529"/>
  <g id="svg_52">
   <g transform="matrix(0.303703, 0, 0, 0.303703, 0, 0)" id="svg_6">
    <g id="svg_7">
     <g id="svg_8">
      <path id="svg_9" fill="#0d6efd" d="m64.67361,483.7933l0,160c0,29.419 23.936,53.333 53.333,53.333l384,0c29.419,0 53.333,-23.915 53.333,-53.333l0,-160l-490.666,0z"/>
     </g>
    </g>
    <g id="svg_10">
     <g id="svg_11">
      <polygon id="svg_12" fill="#0d6efd" points="296.48161697387695,234.0863037109375 216.65161514282227,253.03030395507812 283.53162002563477,351.4412841796875 369.99560928344727,331.7723083496094 "/>
     </g>
    </g>
    <g id="svg_13">
     <g id="svg_14">
      <polygon id="svg_15" fill="#0d6efd" points="194.4656105041504,258.30029296875 108.42761611938477,278.6943054199219 174.60361099243164,376.18829345703125 261.19560623168945,356.497314453125 "/>
     </g>
    </g>
    <g id="svg_16">
     <g id="svg_17">
      <path id="svg_18" fill="#0d6efd" d="m554.99861,278.3963l-18.155,-68.864c-4.181,-16.747 -21.333,-27.285 -38.251,-23.424l-71.68,17.024l68.011,100.267l52.117,-11.861c2.837,-0.64 5.269,-2.411 6.763,-4.885s1.92,-5.441 1.195,-8.257z"/>
     </g>
    </g>
    <g id="svg_19">
     <g id="svg_20">
      <polygon id="svg_21" fill="#0d6efd" points="404.7056007385254,208.40130615234375 319.1376075744629,228.71029663085938 392.7796058654785,326.60931396484375 472.58761978149414,308.45428466796875 "/>
     </g>
    </g>
    <g id="svg_22">
     <g id="svg_23">
      <polygon id="svg_24" fill="#0d6efd" points="172.1716194152832,377.1483154296875 138.03861618041992,462.4602966308594 221.72961807250977,462.4602966308594 255.86261367797852,377.1483154296875 "/>
     </g>
    </g>
    <g id="svg_25">
     <g id="svg_26">
      <polygon id="svg_27" fill="#0d6efd" points="278.8386116027832,377.1483154296875 244.70561599731445,462.4602966308594 328.39560317993164,462.4602966308594 362.5296058654785,377.1483154296875 "/>
     </g>
    </g>
    <g id="svg_28">
     <g id="svg_29">
      <path id="svg_30" fill="#0d6efd" d="m544.67361,377.1483l-52.501,0l-34.133,85.333l97.301,0l0,-74.667c-0.001,-5.909 -4.758,-10.666 -10.667,-10.666z"/>
     </g>
    </g>
    <g id="svg_31">
     <g id="svg_32">
      <polygon id="svg_33" fill="#0d6efd" points="385.50561904907227,377.1483154296875 351.3716163635254,462.4602966308594 435.04159927368164,462.4602966308594 469.1956214904785,377.1483154296875 "/>
     </g>
    </g>
    <g id="svg_34">
     <g id="svg_35">
      <path id="svg_36" fill="#0d6efd" d="m86.24161,283.9853l-17.387,4.117c-8.469,1.92 -15.637,7.061 -20.181,14.443c-4.544,7.403 -5.888,16.107 -3.776,24.533l19.776,78.165l0,57.216l50.389,0l32.021,-80.021l5.205,-1.173l-66.047,-97.28z"/>
     </g>
    </g>
    <g id="svg_37"/>
    <g id="svg_38"/>
    <g id="svg_39"/>
    <g id="svg_40"/>
    <g id="svg_41"/>
    <g id="svg_42"/>
    <g id="svg_43"/>
    <g id="svg_44"/>
    <g id="svg_45"/>
    <g id="svg_46"/>
    <g id="svg_47"/>
    <g id="svg_48"/>
    <g id="svg_49"/>
    <g id="svg_50"/>
    <g id="svg_51"/>
   </g>
  </g>
 </g>
</svg>